<svg width="576" height="672" viewBox="0 0 576 672" fill="none" xmlns="http://www.w3.org/2000/svg">
<path d="M526.745 426.557V481.626L478.618 453.856L526.392 426.321L526.745 426.557Z" fill="#6D6E71"/>
<path d="M526.749 426.091V426.56L526.397 426.325L526.749 426.091Z" fill="#808285"/>
<path d="M526.756 206.269V261.809L479.1 289.344V233.804L526.756 206.269Z" fill="#6D6E71"/>
<path d="M526.748 261.816L463.913 352.187L430.965 371.249L424.729 367.719L479.092 289.351L526.748 261.816Z" fill="#6D6E71"/>
<path d="M526.75 206.268L479.094 233.802L431.32 206.268L479.094 178.733L526.75 206.268Z" fill="#58595B"/>
<path d="M526.762 481.627L335.901 591.884V536.344V536.226L478.635 453.857L526.762 481.627Z" fill="#6D6E71"/>
<path d="M526.382 426.324L478.608 453.859L430.952 426.324L478.608 398.79L526.382 426.324Z" fill="#BCBEC0"/>
<path d="M431.305 261.689L430.952 261.571L479.079 233.801V289.341L431.305 261.689Z" fill="#6D6E71"/>
<path d="M479.091 233.803L430.964 261.573L383.426 233.921L395.546 226.86L479.091 233.803Z" fill="#BCBEC0"/>
<path d="M479.1 289.346L424.736 367.714L384.022 344.18L479.1 289.346Z" fill="#BCBEC0"/>
<path d="M479.095 233.813L395.55 226.871L367.191 224.517L319.535 196.982L431.321 206.278L479.095 233.813Z" fill="#58595B"/>
<path d="M479.086 289.35L384.009 344.184L376.831 340.066L414.838 285.349L479.086 289.35Z" fill="#6D6E71"/>
<path d="M479.09 289.353L414.843 285.352L431.317 261.7L479.09 289.353Z" fill="#6D6E71"/>
<path d="M430.978 426.321L478.635 453.856L335.901 536.225L399.914 444.207L430.978 426.321Z" fill="#BCBEC0"/>
<path d="M463.9 352.183L444.955 379.364L430.952 371.245L463.9 352.183Z" fill="#6D6E71"/>
<path d="M444.961 379.373L417.662 418.674L397.423 407.025L416.368 379.726L430.959 371.253L444.961 379.373Z" fill="#6D6E71"/>
<path d="M431.318 261.704L414.845 285.355L392.252 283.943L430.965 261.586L431.318 261.704Z" fill="#6D6E71"/>
<path d="M430.978 261.59L392.265 283.947L372.967 282.653L335.901 261.355L383.44 233.938L430.978 261.59Z" fill="#BCBEC0"/>
<path d="M424.736 367.715L430.973 371.245L416.382 379.717L424.736 367.715Z" fill="#6D6E71"/>
<path d="M424.716 367.718L416.362 379.72L383.179 398.783L349.525 379.367L367.294 353.951L384.003 344.184L424.716 367.718Z" fill="#BCBEC0"/>
<path d="M417.677 418.667L399.909 444.202L352.605 471.619L397.438 407.018L417.677 418.667Z" fill="#6D6E71"/>
<path d="M416.378 379.714L397.433 407.014L383.195 398.777L416.378 379.714Z" fill="#BCBEC0"/>
<path d="M414.858 285.359L376.85 340.075L335.901 316.424L383.675 288.889L392.265 283.947L414.858 285.359Z" fill="#6D6E71"/>
<path d="M352.601 471.619L399.904 444.202L335.892 536.219V536.337L315.652 524.805L352.601 471.619Z" fill="#6D6E71"/>
<path d="M397.432 407.026L352.6 471.627L288.234 508.693V467.744L304.59 444.21L383.194 398.79L397.432 407.026Z" fill="#BCBEC0"/>
<path d="M367.176 224.517L395.534 226.87L383.414 233.93L367.176 224.517Z" fill="#231F20"/>
<path d="M392.244 283.932L383.654 288.874L372.946 282.638L392.244 283.932Z" fill="#BCBEC0"/>
<path d="M384.024 344.189L367.314 353.955L376.846 340.07L384.024 344.189Z" fill="#6D6E71"/>
<path d="M383.664 288.881L335.891 316.415L288.234 288.881L306.238 278.408L372.957 282.644L383.664 288.881Z" fill="#BCBEC0"/>
<path d="M383.429 233.918L335.891 261.335L288.234 233.8V218.032L367.191 224.504L383.429 233.918Z" fill="#231F20"/>
<path d="M383.2 398.788L304.597 444.208L349.546 379.372L383.2 398.788Z" fill="#BCBEC0"/>
<path d="M376.829 340.075L367.298 353.96L336.351 371.729L335.763 371.376L335.88 371.023V316.424L376.829 340.075Z" fill="#6D6E71"/>
<path d="M372.947 282.654L306.229 278.418L335.881 261.355L372.947 282.654Z" fill="#BCBEC0"/>
<path d="M367.191 224.507L288.234 218.035V194.383L319.534 196.972L367.191 224.507Z" fill="#58595B"/>
<path d="M352.6 471.62L315.651 524.806L288.234 509.156V508.686L352.6 471.62Z" fill="#BCBEC0"/>
<path d="M336.361 371.724L288.234 399.494V343.954L335.773 371.371L336.361 371.724Z" fill="#6D6E71"/>
<path d="M335.891 591.877L288.234 619.412V564.343L288.823 563.519L335.891 536.337V591.877Z" fill="#6D6E71"/>
<path d="M335.891 316.424V371.023L335.773 371.376L288.234 343.959L335.891 316.424Z" fill="#6D6E71"/>
<path d="M335.891 316.422L288.234 343.957V288.888L335.891 316.422Z" fill="#58595B"/>
<path d="M335.891 261.336L306.238 278.398L288.234 277.339V233.801L335.891 261.336Z" fill="#231F20"/>
<path d="M315.663 524.802L335.902 536.334L288.834 563.516L315.663 524.802Z" fill="#6D6E71"/>
<path d="M315.651 524.8L288.823 563.513L288.234 563.749V509.15L315.651 524.8Z" fill="#BCBEC0"/>
<path d="M288.823 563.527L288.234 564.351V563.762L288.823 563.527Z" fill="#808285"/>
<path d="M288.241 564.344V619.414L49.7246 481.623L97.3808 454.088L240.467 536.692L288.241 564.344Z" fill="black"/>
<path d="M288.225 563.75V564.338L240.451 536.686L240.569 536.451L267.633 497.384L288.225 509.151V563.75Z" fill="#BCBEC0"/>
<path d="M288.233 508.688V509.158L267.641 497.392L288.233 467.739V508.688Z" fill="#BCBEC0"/>
<path d="M288.226 343.954V399.494L287.637 399.729L239.628 371.959L288.226 343.954Z" fill="black"/>
<path d="M288.237 288.889V343.958L158.683 269.238L265.762 275.945L288.237 288.889Z" fill="#58595B"/>
<path d="M288.231 233.804V277.341L265.756 275.929L145.145 206.269L256.46 215.447L288.231 233.804Z" fill="#231F20"/>
<path d="M288.24 218.049V233.816L256.469 215.46L288.24 218.049Z" fill="#231F20"/>
<path d="M288.234 194.4V218.051L256.463 215.462L208.689 187.928L288.234 194.4Z" fill="#58595B"/>
<path d="M288.241 343.94L239.643 371.945L238.82 371.474L49.7246 262.277L158.687 269.219L288.241 343.94Z" fill="black"/>
<path d="M239.643 371.946L287.652 399.716L225.052 417.602L192.811 399.01L239.643 371.946Z" fill="black"/>
<path d="M267.633 497.38L240.569 536.446L240.452 536.681L97.3652 454.077L161.142 435.838L267.633 497.38Z" fill="#58595B"/>
<path d="M265.766 275.928L158.687 269.221L49.7246 206.268L97.3808 178.733L145.155 206.268L265.766 275.928Z" fill="#58595B"/>
<path d="M208.681 187.911L256.455 215.446L145.139 206.268L97.3652 178.733L208.681 187.911Z" fill="#58595B"/>
<path d="M238.809 371.486L239.632 371.957L192.8 399.021L176.562 389.607L238.809 371.486Z" fill="black"/>
<path d="M225.042 417.611L161.148 435.85L145.145 426.554L192.801 399.02L225.042 417.611Z" fill="black"/>
<path d="M192.794 399.008L145.138 426.543L113.132 408.068L176.556 389.594L192.794 399.008Z" fill="black"/>
<path d="M161.142 435.848L97.3652 454.086L145.139 426.552L161.142 435.848Z" fill="black"/>
<path d="M158.687 269.222L49.7246 262.28V206.269L158.687 269.222Z" fill="black"/>
<path d="M145.155 426.546L97.3808 454.081L49.7246 426.546L113.149 408.072L145.155 426.546Z" fill="black"/>
<path d="M97.3808 454.086L49.7246 481.621V426.552L97.3808 454.086Z" fill="black"/>
<path d="M288.234 399.964V399.494V343.954" stroke="#231F20" stroke-width="0.901997" stroke-miterlimit="10"/>
<path d="M288.234 454.094V453.625" stroke="#231F20" stroke-width="0.901997" stroke-miterlimit="10"/>
<path d="M288.234 509.282V508.693" stroke="#231F20" stroke-width="0.901997" stroke-miterlimit="10"/>
<path d="M288.234 619.413V564.344V563.755" stroke="#231F20" stroke-width="0.901997" stroke-miterlimit="10"/>
<path d="M526.746 261.809V206.269" stroke="#231F20" stroke-width="0.901997" stroke-miterlimit="10"/>
<path d="M526.746 481.631V426.562V426.091" stroke="#231F20" stroke-width="0.901997" stroke-miterlimit="10"/>
<path d="M49.7246 262.28V206.269" stroke="#231F20" stroke-width="0.901997" stroke-miterlimit="10"/>
<path d="M49.7246 481.621V426.552" stroke="#231F20" stroke-width="0.901997" stroke-miterlimit="10"/>
<path d="M335.901 591.874L526.762 481.618" stroke="#231F20" stroke-width="0.901997" stroke-miterlimit="10"/>
<path d="M288.234 619.423L335.891 591.889" stroke="#231F20" stroke-width="0.901997" stroke-miterlimit="10"/>
<path d="M479.1 233.804L526.756 206.269" stroke="#231F20" stroke-width="0.901997" stroke-miterlimit="10"/>
<path d="M335.901 316.405L383.675 288.871L392.265 283.929L430.978 261.571L479.105 233.801" stroke="#231F20" stroke-width="0.901997" stroke-miterlimit="10"/>
<path d="M288.234 343.959L335.891 316.424" stroke="#231F20" stroke-width="0.901997" stroke-miterlimit="10"/>
<path d="M49.7246 206.268L97.3808 178.733" stroke="#231F20" stroke-width="0.901997" stroke-miterlimit="10"/>
<path d="M288.241 619.409L49.7246 481.618" stroke="#231F20" stroke-width="0.901997" stroke-miterlimit="10"/>
<path d="M288.241 343.943L158.687 269.222L49.7246 206.269" stroke="#231F20" stroke-width="0.901997" stroke-miterlimit="10"/>
<path d="M288.241 399.95L287.653 399.715L239.643 371.945L238.82 371.474L49.7246 262.277" stroke="#231F20" stroke-width="0.901997" stroke-miterlimit="10"/>
<path d="M225.041 417.6L192.8 399.008L176.562 389.594" stroke="#231F20" stroke-width="0.901997" stroke-miterlimit="10"/>
<path d="M267.632 497.384L161.141 435.842L145.138 426.546L113.132 408.072" stroke="#231F20" stroke-width="0.901997" stroke-miterlimit="10"/>
<path d="M97.3808 454.086L49.7246 426.552" stroke="#231F20" stroke-width="0.901997" stroke-miterlimit="10"/>
<path d="M288.225 564.344L240.452 536.692L97.3652 454.088" stroke="#231F20" stroke-width="0.901997" stroke-miterlimit="10"/>
<path d="M336.355 371.72L367.303 353.952L384.012 344.185L479.089 289.351L526.745 261.816" stroke="#231F20" stroke-width="0.901997" stroke-miterlimit="10"/>
<path d="M288.234 399.486L336.361 371.716" stroke="#231F20" stroke-width="0.901997" stroke-miterlimit="10"/>
<path d="M399.903 444.21L430.968 426.324L478.624 398.79" stroke="#231F20" stroke-width="0.901997" stroke-miterlimit="10"/>
<path d="M335.901 536.23L478.635 453.861L526.409 426.326L526.762 426.091" stroke="#231F20" stroke-width="0.901997" stroke-miterlimit="10"/>
<path d="M288.234 563.762L288.823 563.527" stroke="#231F20" stroke-width="0.901997" stroke-miterlimit="10"/>
<path d="M97.3652 454.092L145.139 426.558L192.795 399.023L239.628 371.959L288.225 343.954" stroke="#231F20" stroke-width="0.901997" stroke-miterlimit="10" stroke-dasharray="5.64 5.64"/>
<path d="M49.7246 481.623L97.3808 454.088" stroke="#231F20" stroke-width="0.901997" stroke-miterlimit="10" stroke-dasharray="5.64 5.64"/>
<path d="M335.763 371.372L336.351 371.725" stroke="#231F20" stroke-width="0.901997" stroke-miterlimit="10" stroke-dasharray="5.64 5.64"/>
<path d="M478.618 398.79L526.392 426.324L526.745 426.56" stroke="#231F20" stroke-width="0.901997" stroke-miterlimit="10"/>
<path d="M238.82 371.486L176.572 389.607L113.149 408.081L49.7246 426.555" stroke="#231F20" stroke-width="0.901997" stroke-miterlimit="10"/>
<path d="M288.225 399.48L287.637 399.716L225.037 417.602L161.142 435.84L97.3652 454.079" stroke="#231F20" stroke-width="0.901997" stroke-miterlimit="10"/>
<path d="M288.234 288.888L335.891 316.422" stroke="#231F20" stroke-width="0.901997" stroke-miterlimit="10"/>
<path d="M145.145 206.269L265.756 275.929L288.231 288.873" stroke="#231F20" stroke-width="0.901997" stroke-miterlimit="10"/>
<path d="M430.952 261.586L431.304 261.703" stroke="#231F20" stroke-width="0.901997" stroke-miterlimit="10"/>
<path d="M431.32 206.269L479.094 233.804" stroke="#231F20" stroke-width="0.901997" stroke-miterlimit="10"/>
<path d="M431.312 206.268L319.526 196.972L288.225 194.383L208.681 187.911L97.3652 178.733" stroke="#231F20" stroke-width="0.901997" stroke-miterlimit="10"/>
<path d="M145.145 206.269L256.46 215.447L288.231 218.036L367.187 224.508L395.546 226.861L479.091 233.804" stroke="#231F20" stroke-width="0.901997" stroke-miterlimit="10"/>
<path d="M265.758 275.928L288.233 277.34L306.236 278.399" stroke="#231F20" stroke-width="0.901997" stroke-miterlimit="10"/>
<path d="M49.7246 262.277L158.687 269.219" stroke="#231F20" stroke-width="0.901997" stroke-miterlimit="10"/>
<path d="M479.094 178.733L431.32 206.268" stroke="#231F20" stroke-width="0.901997" stroke-miterlimit="10"/>
<path d="M479.1 233.801V289.341" stroke="#231F20" stroke-width="0.901997" stroke-miterlimit="10"/>
<path d="M288.234 288.872L306.238 278.4L335.891 261.338L383.429 233.921L395.549 226.86" stroke="#231F20" stroke-width="0.901997" stroke-miterlimit="10"/>
<path d="M479.095 289.346L424.731 367.714L416.377 379.716L397.432 407.016L352.6 471.616L315.651 524.803L288.823 563.516L288.234 564.34" stroke="#231F20" stroke-width="0.901997" stroke-miterlimit="10"/>
<path d="M367.298 353.954L349.529 379.37L304.58 444.206L288.224 467.74L267.631 497.393L240.567 536.459" stroke="#231F20" stroke-width="0.901997" stroke-miterlimit="10"/>
<path d="M431.32 261.586V261.703" stroke="#231F20" stroke-width="0.901997" stroke-miterlimit="10"/>
<path d="M526.762 261.816L463.926 352.187L444.981 379.368L417.682 418.67L399.914 444.204L335.901 536.222V536.34" stroke="#231F20" stroke-width="0.901997" stroke-miterlimit="10"/>
<path d="M287.749 671.179V668.237" stroke="#808285" stroke-width="0.901997" stroke-miterlimit="10"/>
<path d="M287.749 662.362V350.066" stroke="#808285" stroke-width="0.901997" stroke-miterlimit="10" stroke-dasharray="5.64 5.64"/>
<path d="M287.749 347.24V344.298" stroke="#808285" stroke-width="0.901997" stroke-miterlimit="10"/>
<path d="M526.283 537.626V534.684" stroke="#808285" stroke-width="0.901997" stroke-miterlimit="10"/>
<path d="M526.283 528.816V158.392" stroke="#808285" stroke-width="0.901997" stroke-miterlimit="10" stroke-dasharray="5.64 5.64"/>
<path d="M526.283 155.453V152.512" stroke="#808285" stroke-width="0.901997" stroke-miterlimit="10"/>
<path d="M49.2373 538.107V535.166" stroke="#808285" stroke-width="0.901997" stroke-miterlimit="10"/>
<path d="M49.2373 529.405V158.392" stroke="#808285" stroke-width="0.901997" stroke-miterlimit="10" stroke-dasharray="5.64 5.64"/>
<path d="M49.2373 155.453V152.512" stroke="#808285" stroke-width="0.901997" stroke-miterlimit="10"/>
<path d="M287.749 413.132V410.19" stroke="#808285" stroke-width="0.901997" stroke-miterlimit="10"/>
<path d="M287.749 404.31V5.88086" stroke="#808285" stroke-width="0.901997" stroke-miterlimit="10" stroke-dasharray="5.64 5.64"/>
<path d="M287.749 2.94174V0" stroke="#808285" stroke-width="0.901997" stroke-miterlimit="10"/>
<path d="M239.879 646.712L242.468 645.3" stroke="#808285" stroke-width="0.901997" stroke-miterlimit="10"/>
<path d="M247.508 642.353L569.923 456.2" stroke="#808285" stroke-width="0.901997" stroke-miterlimit="10" stroke-dasharray="5.64 5.64"/>
<path d="M572.525 454.788L574.996 453.258" stroke="#808285" stroke-width="0.901997" stroke-miterlimit="10"/>
<path d="M287.749 344.308L290.338 342.896" stroke="#808285" stroke-width="0.901997" stroke-miterlimit="10"/>
<path d="M295.405 339.949L569.811 182.39" stroke="#808285" stroke-width="0.901997" stroke-miterlimit="10" stroke-dasharray="5.64 5.64"/>
<path d="M572.411 180.974L575 179.444" stroke="#808285" stroke-width="0.901997" stroke-miterlimit="10"/>
<path d="M1 235.467L3.58873 233.938" stroke="#808285" stroke-width="0.901997" stroke-miterlimit="10"/>
<path d="M8.65039 231.099L330.477 45.2983" stroke="#808285" stroke-width="0.901997" stroke-miterlimit="10" stroke-dasharray="5.64 5.64"/>
<path d="M332.956 43.769L335.545 42.3569" stroke="#808285" stroke-width="0.901997" stroke-miterlimit="10"/>
<path d="M335.545 647.771L332.956 646.241" stroke="#808285" stroke-width="0.901997" stroke-miterlimit="10"/>
<path d="M327.895 643.422L7.59863 457.857" stroke="#808285" stroke-width="0.901997" stroke-miterlimit="10" stroke-dasharray="5.64 5.64"/>
<path d="M5.01013 456.441L2.53906 454.911" stroke="#808285" stroke-width="0.901997" stroke-miterlimit="10"/>
<path d="M287.766 344.308L285.295 342.896" stroke="#808285" stroke-width="0.901997" stroke-miterlimit="10"/>
<path d="M280.125 339.955L6.42578 183.101" stroke="#808285" stroke-width="0.901997" stroke-miterlimit="10" stroke-dasharray="5.64 5.64"/>
<path d="M3.81384 181.572L1.34277 180.16" stroke="#808285" stroke-width="0.901997" stroke-miterlimit="10"/>
<path d="M287.766 400.315L285.295 398.903" stroke="#808285" stroke-width="0.901997" stroke-miterlimit="10"/>
<path d="M280.34 395.962L54.2969 265.467" stroke="#808285" stroke-width="0.901997" stroke-miterlimit="10" stroke-dasharray="5.52 5.52"/>
<path d="M51.826 264.052L49.2373 262.64" stroke="#808285" stroke-width="0.901997" stroke-miterlimit="10"/>
<path d="M287.766 454.44L285.295 453.028" stroke="#808285" stroke-width="0.901997" stroke-miterlimit="10"/>
<path d="M280.34 450.089L54.2969 319.593" stroke="#808285" stroke-width="0.901997" stroke-miterlimit="10" stroke-dasharray="5.52 5.52"/>
<path d="M51.826 318.178L49.2373 316.766" stroke="#808285" stroke-width="0.901997" stroke-miterlimit="10"/>
<path d="M287.766 509.506L285.295 508.094" stroke="#808285" stroke-width="0.901997" stroke-miterlimit="10"/>
<path d="M280.34 505.272L54.2969 374.659" stroke="#808285" stroke-width="0.901997" stroke-miterlimit="10" stroke-dasharray="5.52 5.52"/>
<path d="M51.826 373.244L49.2373 371.832" stroke="#808285" stroke-width="0.901997" stroke-miterlimit="10"/>
<path d="M287.766 564.574L285.295 563.162" stroke="#808285" stroke-width="0.901997" stroke-miterlimit="10"/>
<path d="M280.34 560.335L54.2969 429.839" stroke="#808285" stroke-width="0.901997" stroke-miterlimit="10" stroke-dasharray="5.52 5.52"/>
<path d="M51.826 428.312L49.2373 426.9" stroke="#808285" stroke-width="0.901997" stroke-miterlimit="10"/>
<path d="M287.749 399.834L290.338 398.422" stroke="#808285" stroke-width="0.901997" stroke-miterlimit="10"/>
<path d="M295.287 395.483L521.33 264.988" stroke="#808285" stroke-width="0.901997" stroke-miterlimit="10" stroke-dasharray="5.52 5.52"/>
<path d="M523.805 263.571L526.276 262.159" stroke="#808285" stroke-width="0.901997" stroke-miterlimit="10"/>
<path d="M287.749 453.981L290.338 452.569" stroke="#808285" stroke-width="0.901997" stroke-miterlimit="10"/>
<path d="M295.287 449.604L521.33 319.108" stroke="#808285" stroke-width="0.901997" stroke-miterlimit="10" stroke-dasharray="5.52 5.52"/>
<path d="M523.805 317.717L526.276 316.305" stroke="#808285" stroke-width="0.901997" stroke-miterlimit="10"/>
<path d="M287.749 509.047L290.338 507.635" stroke="#808285" stroke-width="0.901997" stroke-miterlimit="10"/>
<path d="M295.287 504.696L521.33 374.201" stroke="#808285" stroke-width="0.901997" stroke-miterlimit="10" stroke-dasharray="5.52 5.52"/>
<path d="M523.805 372.784L526.276 371.372" stroke="#808285" stroke-width="0.901997" stroke-miterlimit="10"/>
<path d="M287.749 564.113L290.338 562.701" stroke="#808285" stroke-width="0.901997" stroke-miterlimit="10"/>
<path d="M295.287 559.876L521.33 429.263" stroke="#808285" stroke-width="0.901997" stroke-miterlimit="10" stroke-dasharray="5.52 5.52"/>
<path d="M523.805 427.85L526.276 426.438" stroke="#808285" stroke-width="0.901997" stroke-miterlimit="10"/>
<path d="M574.996 234.52L572.525 233.108" stroke="#808285" stroke-width="0.901997" stroke-miterlimit="10"/>
<path d="M567.463 230.163L245.166 45.186" stroke="#808285" stroke-width="0.901997" stroke-miterlimit="10" stroke-dasharray="5.64 5.64"/>
<path d="M242.58 43.769L240.109 42.3569" stroke="#808285" stroke-width="0.901997" stroke-miterlimit="10"/>
<path d="M1.34277 509.738L3.81384 508.326" stroke="#808285" stroke-width="0.901997" stroke-miterlimit="10"/>
<path d="M8.99805 505.386L282.698 347.355" stroke="#808285" stroke-width="0.901997" stroke-miterlimit="10" stroke-dasharray="5.64 5.64"/>
<path d="M285.295 345.826L287.884 344.414" stroke="#808285" stroke-width="0.901997" stroke-miterlimit="10"/>
<path d="M287.289 344.298L289.878 345.71" stroke="#808285" stroke-width="0.901997" stroke-miterlimit="10"/>
<path d="M295.059 348.664L569.935 507.165" stroke="#808285" stroke-width="0.901997" stroke-miterlimit="10" stroke-dasharray="5.64 5.64"/>
<path d="M572.411 508.577L575 510.107" stroke="#808285" stroke-width="0.901997" stroke-miterlimit="10"/>
<path d="M97.0186 178.99L99.4896 180.519" stroke="#808285" stroke-width="0.901997" stroke-miterlimit="10"/>
<path d="M104.42 183.332L330.463 313.827" stroke="#808285" stroke-width="0.901997" stroke-miterlimit="10" stroke-dasharray="5.52 5.52"/>
<path d="M332.956 315.227L335.545 316.757V319.698" stroke="#808285" stroke-width="0.901997" stroke-miterlimit="10"/>
<path d="M335.532 325.364V586.355" stroke="#808285" stroke-width="0.901997" stroke-miterlimit="10" stroke-dasharray="5.52 5.52"/>
<path d="M335.532 589.292V592.116" stroke="#808285" stroke-width="0.901997" stroke-miterlimit="10"/>
<path d="M144.684 151.431L147.155 152.961" stroke="#808285" stroke-width="0.901997" stroke-miterlimit="10"/>
<path d="M152.201 155.795L378.127 286.291" stroke="#808285" stroke-width="0.901997" stroke-miterlimit="10" stroke-dasharray="5.52 5.52"/>
<path d="M380.715 287.695L383.186 289.225V292.049" stroke="#808285" stroke-width="0.901997" stroke-miterlimit="10"/>
<path d="M383.195 297.826V558.817" stroke="#808285" stroke-width="0.901997" stroke-miterlimit="10" stroke-dasharray="5.52 5.52"/>
<path d="M383.195 561.756V564.58" stroke="#808285" stroke-width="0.901997" stroke-miterlimit="10"/>
<path d="M192.33 123.897L194.919 125.427" stroke="#808285" stroke-width="0.901997" stroke-miterlimit="10"/>
<path d="M199.868 128.263L425.912 258.759" stroke="#808285" stroke-width="0.901997" stroke-miterlimit="10" stroke-dasharray="5.52 5.52"/>
<path d="M428.381 260.159L430.852 261.689V264.513" stroke="#808285" stroke-width="0.901997" stroke-miterlimit="10"/>
<path d="M430.84 270.296V531.287" stroke="#808285" stroke-width="0.901997" stroke-miterlimit="10" stroke-dasharray="5.52 5.52"/>
<path d="M430.84 534.226V537.05" stroke="#808285" stroke-width="0.901997" stroke-miterlimit="10"/>
<path d="M240.109 96.3652L242.58 97.8949" stroke="#808285" stroke-width="0.901997" stroke-miterlimit="10"/>
<path d="M247.508 100.733L473.551 231.229" stroke="#808285" stroke-width="0.901997" stroke-miterlimit="10" stroke-dasharray="5.52 5.52"/>
<path d="M476.021 232.629L478.61 234.159V236.983" stroke="#808285" stroke-width="0.901997" stroke-miterlimit="10"/>
<path d="M478.618 242.762V504.224" stroke="#808285" stroke-width="0.901997" stroke-miterlimit="10" stroke-dasharray="5.52 5.52"/>
<path d="M478.618 507.148V510.09" stroke="#808285" stroke-width="0.901997" stroke-miterlimit="10"/>
<path d="M336.346 96.9624L333.875 98.3744" stroke="#808285" stroke-width="0.901997" stroke-miterlimit="10"/>
<path d="M328.831 101.194L101.964 231.219" stroke="#808285" stroke-width="0.901997" stroke-miterlimit="10" stroke-dasharray="5.52 5.52"/>
<path d="M99.4896 232.629L97.0186 234.159V236.983" stroke="#808285" stroke-width="0.901997" stroke-miterlimit="10"/>
<path d="M97.0186 242.762V504.224" stroke="#808285" stroke-width="0.901997" stroke-miterlimit="10" stroke-dasharray="5.52 5.52"/>
<path d="M97.0186 507.148V510.09" stroke="#808285" stroke-width="0.901997" stroke-miterlimit="10"/>
<path d="M384.013 124.495L381.542 125.907" stroke="#808285" stroke-width="0.901997" stroke-miterlimit="10"/>
<path d="M376.609 128.724L149.742 259.69" stroke="#808285" stroke-width="0.901997" stroke-miterlimit="10" stroke-dasharray="5.52 5.52"/>
<path d="M147.155 261.219L144.684 262.631V265.573" stroke="#808285" stroke-width="0.901997" stroke-miterlimit="10"/>
<path d="M144.684 271.237V531.876" stroke="#808285" stroke-width="0.901997" stroke-miterlimit="10" stroke-dasharray="5.52 5.52"/>
<path d="M144.684 534.684V537.626" stroke="#808285" stroke-width="0.901997" stroke-miterlimit="10"/>
<path d="M432.851 152.625L430.263 154.038" stroke="#808285" stroke-width="0.901997" stroke-miterlimit="10"/>
<path d="M425.309 156.853L197.383 286.29" stroke="#808285" stroke-width="0.901997" stroke-miterlimit="10" stroke-dasharray="5.52 5.52"/>
<path d="M194.919 287.695L192.33 289.225V292.049" stroke="#808285" stroke-width="0.901997" stroke-miterlimit="10"/>
<path d="M192.33 297.826V558.346" stroke="#808285" stroke-width="0.901997" stroke-miterlimit="10" stroke-dasharray="5.52 5.52"/>
<path d="M192.33 561.276V564.1" stroke="#808285" stroke-width="0.901997" stroke-miterlimit="10"/>
<path d="M480.262 179.102L477.791 180.514" stroke="#808285" stroke-width="0.901997" stroke-miterlimit="10"/>
<path d="M472.739 183.332L245.166 313.827" stroke="#808285" stroke-width="0.901997" stroke-miterlimit="10" stroke-dasharray="5.52 5.52"/>
<path d="M242.58 315.364L240.109 316.776V319.718" stroke="#808285" stroke-width="0.901997" stroke-miterlimit="10"/>
<path d="M240.109 325.364V586.355" stroke="#808285" stroke-width="0.901997" stroke-miterlimit="10" stroke-dasharray="5.52 5.52"/>
<path d="M240.109 589.292V592.116" stroke="#808285" stroke-width="0.901997" stroke-miterlimit="10"/>
</svg>
